<mxfile host="Electron" modified="2024-02-15T23:44:23.379Z" agent="Mozilla/5.0 (Windows NT 10.0; Win64; x64) AppleWebKit/537.36 (KHTML, like Gecko) draw.io/23.0.2 Chrome/120.0.6099.109 Electron/28.1.0 Safari/537.36" etag="d5wvHHX-jsdu6HGdmgvr" version="23.0.2" type="device">
  <diagram name="Page-1" id="D2t-uky-OOhXq_BQYKhJ">
    <mxGraphModel dx="1053" dy="749" grid="1" gridSize="10" guides="1" tooltips="1" connect="1" arrows="1" fold="1" page="1" pageScale="1" pageWidth="850" pageHeight="1100" math="0" shadow="0">
      <root>
        <mxCell id="0" />
        <mxCell id="1" parent="0" />
        <mxCell id="rDKk_uTNcpZqrWIWPlHD-75" value="Kind" style="rounded=0;whiteSpace=wrap;html=1;fillColor=#fff2cc;strokeColor=#d6b656;" vertex="1" parent="1">
          <mxGeometry x="80" y="120" width="160" height="40" as="geometry" />
        </mxCell>
        <mxCell id="rDKk_uTNcpZqrWIWPlHD-77" value="Nonce" style="rounded=0;whiteSpace=wrap;html=1;fillColor=#d5e8d4;strokeColor=#82b366;" vertex="1" parent="1">
          <mxGeometry x="240" y="120" width="160" height="40" as="geometry" />
        </mxCell>
        <mxCell id="rDKk_uTNcpZqrWIWPlHD-78" value="Disc." style="rounded=0;whiteSpace=wrap;html=1;fillColor=#dae8fc;strokeColor=#6c8ebf;" vertex="1" parent="1">
          <mxGeometry x="400" y="120" width="40" height="40" as="geometry" />
        </mxCell>
        <mxCell id="rDKk_uTNcpZqrWIWPlHD-79" value="Length" style="rounded=0;whiteSpace=wrap;html=1;fillColor=#e1d5e7;strokeColor=#9673a6;" vertex="1" parent="1">
          <mxGeometry x="440" y="120" width="400" height="40" as="geometry" />
        </mxCell>
        <mxCell id="rDKk_uTNcpZqrWIWPlHD-80" value="Index" style="rounded=0;whiteSpace=wrap;html=1;fillColor=#f8cecc;strokeColor=#b85450;" vertex="1" parent="1">
          <mxGeometry x="840" y="120" width="400" height="40" as="geometry" />
        </mxCell>
        <mxCell id="rDKk_uTNcpZqrWIWPlHD-1" value="0" style="rounded=0;whiteSpace=wrap;html=1;" vertex="1" parent="1">
          <mxGeometry x="80" y="160" width="40" height="40" as="geometry" />
        </mxCell>
        <mxCell id="rDKk_uTNcpZqrWIWPlHD-2" value="1" style="rounded=0;whiteSpace=wrap;html=1;" vertex="1" parent="1">
          <mxGeometry x="120" y="160" width="40" height="40" as="geometry" />
        </mxCell>
        <mxCell id="rDKk_uTNcpZqrWIWPlHD-3" value="2" style="rounded=0;whiteSpace=wrap;html=1;" vertex="1" parent="1">
          <mxGeometry x="160" y="160" width="40" height="40" as="geometry" />
        </mxCell>
        <mxCell id="rDKk_uTNcpZqrWIWPlHD-4" value="3" style="rounded=0;whiteSpace=wrap;html=1;" vertex="1" parent="1">
          <mxGeometry x="200" y="160" width="40" height="40" as="geometry" />
        </mxCell>
        <mxCell id="rDKk_uTNcpZqrWIWPlHD-5" value="4" style="rounded=0;whiteSpace=wrap;html=1;" vertex="1" parent="1">
          <mxGeometry x="240" y="160" width="40" height="40" as="geometry" />
        </mxCell>
        <mxCell id="rDKk_uTNcpZqrWIWPlHD-6" value="5" style="rounded=0;whiteSpace=wrap;html=1;" vertex="1" parent="1">
          <mxGeometry x="280" y="160" width="40" height="40" as="geometry" />
        </mxCell>
        <mxCell id="rDKk_uTNcpZqrWIWPlHD-7" value="6" style="rounded=0;whiteSpace=wrap;html=1;" vertex="1" parent="1">
          <mxGeometry x="320" y="160" width="40" height="40" as="geometry" />
        </mxCell>
        <mxCell id="rDKk_uTNcpZqrWIWPlHD-8" value="7" style="rounded=0;whiteSpace=wrap;html=1;" vertex="1" parent="1">
          <mxGeometry x="360" y="160" width="40" height="40" as="geometry" />
        </mxCell>
        <mxCell id="rDKk_uTNcpZqrWIWPlHD-9" value="8" style="rounded=0;whiteSpace=wrap;html=1;" vertex="1" parent="1">
          <mxGeometry x="400" y="160" width="40" height="40" as="geometry" />
        </mxCell>
        <mxCell id="rDKk_uTNcpZqrWIWPlHD-10" value="9" style="rounded=0;whiteSpace=wrap;html=1;" vertex="1" parent="1">
          <mxGeometry x="440" y="160" width="40" height="40" as="geometry" />
        </mxCell>
        <mxCell id="rDKk_uTNcpZqrWIWPlHD-11" value="10" style="rounded=0;whiteSpace=wrap;html=1;" vertex="1" parent="1">
          <mxGeometry x="480" y="160" width="40" height="40" as="geometry" />
        </mxCell>
        <mxCell id="rDKk_uTNcpZqrWIWPlHD-12" value="11" style="rounded=0;whiteSpace=wrap;html=1;" vertex="1" parent="1">
          <mxGeometry x="520" y="160" width="40" height="40" as="geometry" />
        </mxCell>
        <mxCell id="rDKk_uTNcpZqrWIWPlHD-13" value="12" style="rounded=0;whiteSpace=wrap;html=1;" vertex="1" parent="1">
          <mxGeometry x="560" y="160" width="40" height="40" as="geometry" />
        </mxCell>
        <mxCell id="rDKk_uTNcpZqrWIWPlHD-14" value="13" style="rounded=0;whiteSpace=wrap;html=1;" vertex="1" parent="1">
          <mxGeometry x="600" y="160" width="40" height="40" as="geometry" />
        </mxCell>
        <mxCell id="rDKk_uTNcpZqrWIWPlHD-15" value="14" style="rounded=0;whiteSpace=wrap;html=1;direction=south;" vertex="1" parent="1">
          <mxGeometry x="640" y="160" width="40" height="40" as="geometry" />
        </mxCell>
        <mxCell id="rDKk_uTNcpZqrWIWPlHD-16" value="15" style="rounded=0;whiteSpace=wrap;html=1;" vertex="1" parent="1">
          <mxGeometry x="680" y="160" width="40" height="40" as="geometry" />
        </mxCell>
        <mxCell id="rDKk_uTNcpZqrWIWPlHD-17" value="16" style="rounded=0;whiteSpace=wrap;html=1;" vertex="1" parent="1">
          <mxGeometry x="720" y="160" width="40" height="40" as="geometry" />
        </mxCell>
        <mxCell id="rDKk_uTNcpZqrWIWPlHD-18" value="17" style="rounded=0;whiteSpace=wrap;html=1;" vertex="1" parent="1">
          <mxGeometry x="760" y="160" width="40" height="40" as="geometry" />
        </mxCell>
        <mxCell id="rDKk_uTNcpZqrWIWPlHD-19" value="18" style="rounded=0;whiteSpace=wrap;html=1;" vertex="1" parent="1">
          <mxGeometry x="800" y="160" width="40" height="40" as="geometry" />
        </mxCell>
        <mxCell id="rDKk_uTNcpZqrWIWPlHD-20" value="19" style="rounded=0;whiteSpace=wrap;html=1;" vertex="1" parent="1">
          <mxGeometry x="840" y="160" width="40" height="40" as="geometry" />
        </mxCell>
        <mxCell id="rDKk_uTNcpZqrWIWPlHD-21" value="20" style="rounded=0;whiteSpace=wrap;html=1;" vertex="1" parent="1">
          <mxGeometry x="880" y="160" width="40" height="40" as="geometry" />
        </mxCell>
        <mxCell id="rDKk_uTNcpZqrWIWPlHD-22" value="21" style="rounded=0;whiteSpace=wrap;html=1;" vertex="1" parent="1">
          <mxGeometry x="920" y="160" width="40" height="40" as="geometry" />
        </mxCell>
        <mxCell id="rDKk_uTNcpZqrWIWPlHD-23" value="22" style="rounded=0;whiteSpace=wrap;html=1;" vertex="1" parent="1">
          <mxGeometry x="960" y="160" width="40" height="40" as="geometry" />
        </mxCell>
        <mxCell id="rDKk_uTNcpZqrWIWPlHD-24" value="23" style="rounded=0;whiteSpace=wrap;html=1;" vertex="1" parent="1">
          <mxGeometry x="1000" y="160" width="40" height="40" as="geometry" />
        </mxCell>
        <mxCell id="rDKk_uTNcpZqrWIWPlHD-49" value="24" style="rounded=0;whiteSpace=wrap;html=1;" vertex="1" parent="1">
          <mxGeometry x="1040" y="160" width="40" height="40" as="geometry" />
        </mxCell>
        <mxCell id="rDKk_uTNcpZqrWIWPlHD-50" value="25" style="rounded=0;whiteSpace=wrap;html=1;" vertex="1" parent="1">
          <mxGeometry x="1080" y="160" width="40" height="40" as="geometry" />
        </mxCell>
        <mxCell id="rDKk_uTNcpZqrWIWPlHD-51" value="26" style="rounded=0;whiteSpace=wrap;html=1;" vertex="1" parent="1">
          <mxGeometry x="1120" y="160" width="40" height="40" as="geometry" />
        </mxCell>
        <mxCell id="rDKk_uTNcpZqrWIWPlHD-52" value="27" style="rounded=0;whiteSpace=wrap;html=1;" vertex="1" parent="1">
          <mxGeometry x="1160" y="160" width="40" height="40" as="geometry" />
        </mxCell>
        <mxCell id="rDKk_uTNcpZqrWIWPlHD-53" value="28" style="rounded=0;whiteSpace=wrap;html=1;" vertex="1" parent="1">
          <mxGeometry x="1200" y="160" width="40" height="40" as="geometry" />
        </mxCell>
      </root>
    </mxGraphModel>
  </diagram>
</mxfile>
